<?xml version="1.0" ?><!DOCTYPE svg  PUBLIC '-//W3C//DTD SVG 1.1//EN'  'http://www.w3.org/Graphics/SVG/1.1/DTD/svg11.dtd'><svg height="135px" style="enable-background:new 0 0 107 135;" version="1.1" viewBox="0 0 107 135" width="107px" xml:space="preserve" xmlns="http://www.w3.org/2000/svg" xmlns:xlink="http://www.w3.org/1999/xlink"><style type="text/css">
<![CDATA[
	.st0{fill:#EF3E42;}
	.st1{fill:#FFFFFF;}
	.st2{fill:none;}
	.st3{fill-rule:evenodd;clip-rule:evenodd;fill:#FFFFFF;}
]]>
</style><defs/><path d="M35.8,20.5v63.5h-5V69.8h-5v-5l-10,0v9.5h5v5h-5v-5h-5V59.8h15v5h5V20.5H35.8c0-5,0-5,0-5h10.1v5h5v19.4h10v5h-10v19.7h-5  V20.5H35.8L35.8,20.5z M85.5,54.9h5v5h-5V54.9L85.5,54.9z M95.4,59.8V94h-5V59.8H95.4L95.4,59.8z M80.6,54.9v14.7h-5V49.9h-9.8v14.7  h-5V44.9h14.8v5h9.8v5H80.6L80.6,54.9z M40.8,117.7h39.6v-9.3h5V94h5v14.3h-5v14.3H35.8v-14.3h-5v-9.7h5v9.7h5V117.7L40.8,117.7z   M25.9,79.4V89h5v9.7h-5V89h-5v-9.7H25.9L25.9,79.4z"/><rect class="st2" height="135" id="_x3C_Slice_x3E__100_" width="107"/></svg>